{"title":"Spawn of the North [1938][DVDRIP]","uid":5424865,"size":733284815,"categoryP":"video","categoryS":"movies","magnet":"?xt=urn:btih:263520704ba8539dfd275c932180e556e51f0182&amp;dn=Spawn+of+the+North+%5B1938%5D%5BDVDRIP%5D&amp;tr=udp%3A%2F%2Ftracker.openbittorrent.com%3A80&amp;tr=udp%3A%2F%2Fopen.demonii.com%3A1337&amp;tr=udp%3A%2F%2Ftracker.coppersurfer.tk%3A6969&amp;tr=udp%3A%2F%2Fexodus.desync.com%3A6969","seeders":5,"leechers":1,"uploader":"aszeran","files":-1,"time":1268216115,"description":"Movies : Romance : DVD Rip : English\n\n &lt;a href=&quot;\nhttp://www.imdb.com/title/tt0030775/&quot; rel=&quot;nofollow&quot; target=&quot;_NEW&quot;&gt;\nhttp://www.imdb.com/title/tt0030775/&lt;/a&gt;\n\n\nTwo Alaskan salmon fishermen, Tyler Dawson (skipper of the &quot;Who Cares&quot;) and Jim Kimmerlee of the &quot;Old Reliable,&quot; are lifelong pals. Their romantic rivalry over young Dian ends amicably. But a more serious rift, with violent consequences, arises when Tyler befriends Russian fish pirates while Jim finds himself aligned with local vigilantes.\n\nEnjoy.\n\n\n\nh2a7cGeneral\nComplete name : Z:SeedboxSPAWN OF THE NORTH (1938)Spawn of the North.avi\nFormat : AVI\nFormat/Info : Audio Video Interleave\nFile size : 699 MiB\nDuration : 1h 49mn\nOverall bit rate : 891 Kbps\n\nVideo\nFormat : MPEG-4 Visual\nFormat profile : Streaming Video@L1\nFormat settings, BVOP : Yes\nFormat settings, QPel : No\nFormat settings, GMC : No warppoints\nFormat settings, Matrix : Custom\nCodec ID : XVID\nCodec ID/Hint : XviD\nDuration : 1h 49mn\nBit rate : 775 Kbps\nWidth : 512 pixels\nHeight : 384 pixels\nDisplay aspect ratio : 4/3\nFrame rate : 23.976 fps\nResolution : 24 bits\nColorimetry : 4:2:0\nScan type : Progressive\nBits/(Pixel*Frame) : 0.164\nStream size : 608 MiB (87%)\nWriting library : XviD 50\n\nAudio\nFormat : MPEG Audio\nFormat version : Version 1\nFormat profile : Layer 3\nCodec ID : 55\nCodec ID/Hint : MP3\nDuration : 1h 49mn\nBit rate mode : Variable\nBit rate : 103 Kbps\nChannel(s) : 2 channels\nSampling rate : 48.0 KHz\nResolution : 16 bits\nStream size : 80.9 MiB (12%)\nAlignment : Aligned on interleaves\nInterleave, duration : 24 ms (0.58 video frame)","torrent":{"xt":"urn:btih:263520704ba8539dfd275c932180e556e51f0182","amp;dn":"Spawn+of+the+North+%5B1938%5D%5BDVDRIP%5D","amp;tr":["udp%3A%2F%2Ftracker.openbittorrent.com%3A80","udp%3A%2F%2Fopen.demonii.com%3A1337","udp%3A%2F%2Ftracker.coppersurfer.tk%3A6969","udp%3A%2F%2Fexodus.desync.com%3A6969"],"infoHash":"263520704ba8539dfd275c932180e556e51f0182","infoHashBuffer":{"type":"Buffer","data":[38,53,32,112,75,168,83,157,253,39,92,147,33,128,229,86,229,31,1,130]},"announce":[],"urlList":[]}}